<svg height="480pt" viewBox="-74 0 480 480" width="480pt" xmlns="http://www.w3.org/2000/svg"><path d="m247.878906 480h-163.757812c-15.953125 0-29.273438-12.132812-30.71875-27.972656l-31.308594-343.945313h287.8125l-31.3125 343.945313c-1.441406 15.839844-14.765625 27.972656-30.714844 27.972656zm0 0" fill="#ffeacf"/><path d="m23.914062 128.082031h284.171876l1.820312-20h-287.8125zm0 0" fill="#ffd59a"/><path d="m109.40625 452.027344-31.3125-343.945313h-56l31.3125 343.945313c1.441406 15.84375 14.765625 27.972656 30.714844 27.972656h56c-15.949219 0-29.273438-12.128906-30.714844-27.972656zm0 0" fill="#ffd59a"/><path d="m315.027344 68.738281h-298.054688l18.238282-51.625c3.625-10.253906 13.339843-17.113281 24.246093-17.113281h213.085938c10.90625 0 20.621093 6.859375 24.246093 17.113281zm0 0" fill="#a56021"/><path d="m115.457031 0h-56c-10.90625 0-20.621093 6.859375-24.242187 17.113281l-18.242188 51.625h56l18.238282-51.625c3.625-10.253906 13.339843-17.113281 24.246093-17.113281zm0 0" fill="#8c4c17"/><path d="m319.679688 108.082031h-307.359376c-6.804687 0-12.320312-5.515625-12.320312-12.320312v-25.144531c0-6.804688 5.515625-12.320313 12.320312-12.320313h307.359376c6.804687 0 12.320312 5.515625 12.320312 12.320313v25.144531c0 6.804687-5.515625 12.320312-12.320312 12.320312zm0 0" fill="#a56021"/><path d="m43.425781 364.996094h245.148438c4.160156 0 7.632812-3.222656 8.019531-7.4375l11.972656-130.6875c.441406-4.8125-3.273437-8.964844-8.019531-8.964844h-269.09375c-4.742187 0-8.457031 4.15625-8.015625 8.964844l11.96875 130.6875c.386719 4.21875 3.863281 7.4375 8.019531 7.4375zm0 0" fill="#a56021"/><path d="m281.824219 354.996094c-.183594 0-.367188-.007813-.554688-.023438-3.300781-.300781-5.730469-3.222656-5.425781-6.523437l9.523438-103.996094c.304687-3.300781 3.222656-5.761719 6.523437-5.429687 3.300781.300781 5.730469 3.222656 5.425781 6.523437l-9.523437 103.996094c-.285157 3.113281-2.902344 5.453125-5.96875 5.453125zm0 0" fill="#bf6c0d"/><path d="m243.8125 290.925781c0 39.761719-32.234375 72-72 72s-72-32.238281-72-72c0-39.765625 32.234375-72 72-72s72 32.234375 72 72zm0 0" fill="#db9c2e"/><path d="m223.8125 290.925781c0 28.71875-23.28125 52-52 52s-52-23.28125-52-52 23.28125-52 52-52 52 23.28125 52 52zm0 0" fill="#ffc34c"/><path d="m56 86.617188c0-6.804688 5.515625-12.320313 12.320312-12.320313h263.679688v-3.679687c0-6.804688-5.515625-12.320313-12.320312-12.320313h-307.359376c-6.804687 0-12.320312 5.515625-12.320312 12.320313v25.144531c0 6.804687 5.515625 12.320312 12.320312 12.320312h43.679688zm0 0" fill="#8c4c17"/><path d="m91.40625 357.558594-11.96875-130.6875c-.441406-4.808594 3.273438-8.960938 8.015625-8.960938h-56c-4.742187 0-8.457031 4.152344-8.015625 8.960938l11.96875 130.6875c.386719 4.214844 3.863281 7.4375 8.019531 7.4375h56c-4.15625 0-7.632812-3.21875-8.019531-7.4375zm0 0" fill="#8c4c17"/><path d="m158.121094 448.675781c0 9.941407-8.058594 18-18 18s-18-8.058593-18-18c0-9.941406 8.058594-18 18-18s18 8.058594 18 18zm0 0" fill="#ffd59a"/></svg>